<svg width="26" height="26" viewBox="0 0 26 26" xmlns="http://www.w3.org/2000/svg">
<path d="M25.4393 20.5848L14.655 3.0485C13.7485 1.63585 12.3358 1.63585 11.4292 3.0485L0.539562 20.5848C-0.672744 22.4981 0.239121 24.0108 2.4529 24.0108H23.5259C25.8452 24.0161 26.6516 22.5034 25.4393 20.5848ZM13.0421 20.9906C12.436 20.9906 12.0354 20.59 12.0354 19.9838C12.0354 19.3777 12.4412 18.9771 13.0421 18.9771C13.6483 18.9771 14.0489 19.3829 14.0489 19.9838C14.0489 20.5848 13.5429 20.9906 13.0421 20.9906ZM14.0489 15.9517C14.0489 16.4577 13.6483 16.9584 13.0421 16.9584C12.436 16.9584 12.0354 16.5578 12.0354 15.9517V9.90066C12.0354 9.39461 12.4412 8.89387 13.0421 8.89387C13.6483 8.89387 14.0489 9.29973 14.0489 9.90066V15.9517Z" fill="black"/>
</svg>
