<svg width="26" height="26" viewBox="0 0 26 26" fill="none" xmlns="http://www.w3.org/2000/svg">
<path d="M5.41675 6.50008C5.41675 4.98341 5.41675 4.22508 5.71141 3.6455C5.97112 3.13563 6.38563 2.72112 6.8955 2.46141C7.47508 2.16675 8.23341 2.16675 9.75008 2.16675H16.2501C17.7667 2.16675 18.5251 2.16675 19.1047 2.46141C19.6141 2.7213 20.0282 3.1358 20.2877 3.6455C20.5834 4.22508 20.5834 4.98341 20.5834 6.50008V20.8087C20.5834 21.9527 20.5834 22.5237 20.3483 22.8194C20.2475 22.9464 20.1194 23.0491 19.9735 23.12C19.8276 23.1909 19.6677 23.2281 19.5055 23.2289C19.1274 23.2311 18.6778 22.8779 17.7797 22.1716L13.0001 18.4167L8.2215 22.1716C7.32233 22.8779 6.87275 23.2311 6.49466 23.2289C6.33248 23.2281 6.17256 23.1909 6.02668 23.12C5.88081 23.0491 5.75271 22.9464 5.65183 22.8194C5.41675 22.5237 5.41675 21.9527 5.41675 20.8087V6.50008Z" fill="black"/>
</svg>
