<svg width="26" height="26" viewBox="0 0 26 26" fill="none" xmlns="http://www.w3.org/2000/svg">
<path d="M6.64707 22.2525C5.98433 22.9153 4.9098 22.9153 4.24706 22.2525C3.58431 21.5898 3.58431 20.5153 4.24706 19.8525L19.8524 4.24706C20.5152 3.58431 21.5897 3.58431 22.2524 4.24706C22.9152 4.90981 22.9152 5.98434 22.2524 6.64709L6.64707 22.2525Z" fill="black"/>
<path d="M4.24757 6.64748C3.58483 5.98473 3.58483 4.9102 4.24757 4.24745C4.91032 3.5847 5.98484 3.5847 6.64759 4.24745L22.2529 19.8529C22.9157 20.5157 22.9157 21.5902 22.2529 22.2529C21.5902 22.9157 20.5157 22.9157 19.8529 22.2529L4.24757 6.64748Z" fill="black"/>
</svg>
