<svg width="26" height="26" viewBox="0 0 26 26" fill="none" xmlns="http://www.w3.org/2000/svg">
<path d="M9.66274 17.6697C9.31894 18.0135 8.76155 18.0135 8.41776 17.6697C8.07396 17.3259 8.07396 16.7685 8.41776 16.4247L16.5129 8.32962C16.8567 7.98583 17.4141 7.98583 17.7578 8.32962C18.1016 8.67341 18.1016 9.23081 17.7578 9.5746L9.66274 17.6697Z" fill="black"/>
<path d="M8.41802 9.5748C8.07423 9.23101 8.07423 8.67362 8.41802 8.32982C8.76182 7.98603 9.31921 7.98603 9.663 8.32982L17.7581 16.4249C18.1019 16.7687 18.1019 17.3261 17.7581 17.6699C17.4143 18.0137 16.8569 18.0137 16.5131 17.6699L8.41802 9.5748Z" fill="black"/>
<path d="M13 1C6.37115 1 1 6.37115 1 13C1 19.6288 6.37115 25 13 25C19.6288 25 25 19.6288 25 13C25 6.37115 19.6288 1 13 1ZM13 23C6.93654 23 3 19.0692 3 13C3 6.93654 6.93077 3 13 3C19.0635 3 23 6.93077 23 13C23 19.0635 19.0635 23 13 23Z" fill="black"/>
</svg>
