<svg width="26" height="26" viewBox="0 0 26 26" fill="none" xmlns="http://www.w3.org/2000/svg">
<path d="M25.1875 14.9289C25.6461 14.8932 26 14.5099 26 14.0505V11.9494C26 11.4892 25.6461 11.1068 25.1875 11.0703L22.4033 10.8529C22.2263 10.8394 22.074 10.7283 22.0057 10.564L21.0901 8.35423C21.0219 8.19076 21.0505 8.00353 21.1663 7.86942L22.9817 5.7461C23.2801 5.39617 23.261 4.87566 22.9349 4.55036L21.4495 3.065C21.1242 2.7397 20.6029 2.71903 20.2538 3.01818L18.1305 4.83361C17.9964 4.94868 17.8083 4.97803 17.6457 4.9106L15.4351 3.99415C15.2716 3.92671 15.1598 3.77198 15.1455 3.59663L14.9289 0.81316C14.8932 0.353895 14.5107 0 14.0506 0H11.9495C11.4893 0 11.1068 0.353895 11.0711 0.813313L10.8537 3.59679C10.8402 3.77295 10.7284 3.92686 10.5649 3.9943L8.35433 4.91075C8.19086 4.97819 8.00363 4.94884 7.86871 4.83377L5.7462 3.01834C5.39708 2.71918 4.87657 2.73985 4.55046 3.06516L3.06511 4.55051C2.7398 4.87581 2.71995 5.39632 3.01829 5.74625L4.83371 7.86957C4.94797 8.00368 4.97814 8.19091 4.90989 8.35438L3.99425 10.5642C3.92757 10.7284 3.77289 10.8395 3.5975 10.853L0.8125 11.0703C0.353895 11.1068 0 11.4893 0 11.9495V14.0497C0 14.51 0.353895 14.8932 0.8125 14.9289L3.59755 15.1456C3.77289 15.1598 3.92762 15.2717 3.9943 15.4352L4.90994 17.645C4.97819 17.8084 4.94802 17.9965 4.83377 18.1306L3.01834 20.2539C2.72 20.603 2.73985 21.1235 3.06516 21.4496L4.55051 22.935C4.87663 23.2603 5.39713 23.2802 5.74625 22.981L7.86876 21.1656C8.00363 21.0513 8.19091 21.0212 8.35438 21.0894L10.5649 22.005C10.7284 22.0733 10.8403 22.2264 10.8538 22.4034L11.0712 25.1868C11.1069 25.6454 11.4893 26.0002 11.9495 26.0002H14.0506C14.5108 26.0002 14.8933 25.6455 14.929 25.1868L15.1456 22.4034C15.1599 22.2264 15.2717 22.0733 15.4352 22.005L17.6458 21.0894C17.8084 21.0212 17.9973 21.0513 18.1306 21.1656L20.2539 22.981C20.603 23.2802 21.1243 23.2603 21.4496 22.935L22.935 21.4496C23.2611 21.1235 23.2802 20.603 22.9818 20.2539L21.1664 18.1306C21.0521 17.9965 21.022 17.8084 21.0902 17.645L22.0059 15.4352C22.0741 15.2717 22.2264 15.1598 22.4034 15.1456L25.1875 14.9289ZM13 17.3934C11.8265 17.3934 10.7228 16.9364 9.8928 16.1072C9.06283 15.2765 8.6058 14.1736 8.6058 12.9992C8.6058 11.8257 9.06283 10.722 9.8928 9.89285C10.7228 9.06212 11.8264 8.60585 13 8.60585C14.1743 8.60585 15.2772 9.06207 16.1072 9.89285C16.9372 10.722 17.3942 11.8257 17.3942 12.9992C17.3942 14.1736 16.9372 15.2765 16.1072 16.1072C15.2772 16.9364 14.1743 17.3934 13 17.3934Z" fill="black"/>
</svg>
