<svg width="26" height="26" viewBox="0 0 26 26" fill="none" xmlns="http://www.w3.org/2000/svg">
<path d="M13 1C6.37115 1 1 6.37115 1 13C1 19.6288 6.37115 25 13 25C19.6288 25 25 19.6288 25 13C25 6.37115 19.6288 1 13 1ZM13 23C6.93654 23 3 19.0692 3 13C3 6.93654 6.93077 3 13 3C19.0635 3 23 6.93077 23 13C23 19.0635 19.0635 23 13 23Z" fill="black"/>
<path d="M13.9066 17.0778L14.3093 15.488L15.2007 11.9678C15.3595 11.3407 14.9693 10.7063 14.3292 10.5507L14.2132 10.5225C14.1354 10.5035 14.0576 10.493 13.9805 10.4893L13.9815 10.4661C13.9815 10.4661 13.9622 10.4745 13.9293 10.4891C13.5624 10.4878 13.0263 10.8366 13.0263 10.8366C11.985 11.5478 10.5599 12.491 10.771 12.9403C11.0908 13.6207 12.6516 11.8303 12.2778 13.3066L11.8752 14.8963L10.9837 18.4165C10.8249 19.0437 11.1633 19.6655 11.8034 19.8211L11.9193 19.8493C11.9972 19.8682 12.0749 19.8789 12.1522 19.8823L12.1511 19.9056C12.1511 19.9056 12.1705 19.8973 12.2034 19.8826C12.5703 19.884 13.1064 19.5351 13.1064 19.5351C14.1477 18.8239 15.5987 17.887 15.3876 17.4376C15.0676 16.7573 13.5328 18.554 13.9066 17.0778Z" fill="black"/>
<path d="M13.7424 9.77588C14.6658 9.77588 15.4143 9.04255 15.4143 8.13794C15.4143 7.23333 14.6658 6.5 13.7424 6.5C12.8191 6.5 12.0706 7.23333 12.0706 8.13794C12.0706 9.04255 12.8191 9.77588 13.7424 9.77588Z" fill="black"/>
</svg>
