<svg width="26" height="26" viewBox="0 0 26 26" fill="none" xmlns="http://www.w3.org/2000/svg">
<path d="M13 1.5C13.2542 1.5 13.4979 1.60097 13.6776 1.78069C13.8574 1.96041 13.9583 2.20417 13.9583 2.45833V6.29167C13.9583 6.54583 13.8574 6.78959 13.6776 6.96931C13.4979 7.14903 13.2542 7.25 13 7.25C12.7458 7.25 12.5021 7.14903 12.3224 6.96931C12.1426 6.78959 12.0417 6.54583 12.0417 6.29167V2.45833C12.0417 2.20417 12.1426 1.96041 12.3224 1.78069C12.5021 1.60097 12.7458 1.5 13 1.5ZM6.22362 4.86854C6.04288 4.69397 5.8008 4.59738 5.54953 4.59956C5.29826 4.60175 5.0579 4.70253 4.88022 4.88022C4.70253 5.0579 4.60175 5.29826 4.59956 5.54953C4.59738 5.8008 4.69397 6.04288 4.86854 6.22362L7.57871 8.93379C7.75945 9.10836 8.00153 9.20495 8.2528 9.20277C8.50407 9.20059 8.74443 9.0998 8.92212 8.92212C9.0998 8.74443 9.20059 8.50407 9.20277 8.2528C9.20495 8.00153 9.10836 7.75945 8.93379 7.57871L6.22362 4.86854ZM2.45833 12.0417C2.20417 12.0417 1.96041 12.1426 1.78069 12.3224C1.60097 12.5021 1.5 12.7458 1.5 13C1.5 13.2542 1.60097 13.4979 1.78069 13.6776C1.96041 13.8574 2.20417 13.9583 2.45833 13.9583H6.29167C6.54583 13.9583 6.78959 13.8574 6.96931 13.6776C7.14903 13.4979 7.25 13.2542 7.25 13C7.25 12.7458 7.14903 12.5021 6.96931 12.3224C6.78959 12.1426 6.54583 12.0417 6.29167 12.0417H2.45833ZM18.75 13C18.75 12.7458 18.851 12.5021 19.0307 12.3224C19.2104 12.1426 19.4542 12.0417 19.7083 12.0417H23.5417C23.7958 12.0417 24.0396 12.1426 24.2193 12.3224C24.399 12.5021 24.5 12.7458 24.5 13C24.5 13.2542 24.399 13.4979 24.2193 13.6776C24.0396 13.8574 23.7958 13.9583 23.5417 13.9583H19.7083C19.4542 13.9583 19.2104 13.8574 19.0307 13.6776C18.851 13.4979 18.75 13.2542 18.75 13ZM18.4213 17.0662C18.2405 16.8916 17.9985 16.795 17.7472 16.7972C17.4959 16.7994 17.2556 16.9002 17.0779 17.0779C16.9002 17.2556 16.7994 17.4959 16.7972 17.7472C16.795 17.9985 16.8916 18.2405 17.0662 18.4213L19.7764 21.1315C19.8648 21.223 19.9705 21.296 20.0874 21.3462C20.2044 21.3964 20.3301 21.4229 20.4574 21.424C20.5846 21.4251 20.7108 21.4008 20.8286 21.3527C20.9464 21.3045 21.0534 21.2333 21.1433 21.1433C21.2333 21.0534 21.3045 20.9464 21.3527 20.8286C21.4008 20.7108 21.4251 20.5846 21.424 20.4574C21.4229 20.3301 21.3964 20.2044 21.3462 20.0874C21.296 19.9705 21.223 19.8648 21.1315 19.7764L18.4213 17.0662ZM8.93379 18.4213C9.02532 18.3329 9.09833 18.2271 9.14856 18.1102C9.19878 17.9933 9.22522 17.8675 9.22632 17.7403C9.22743 17.6131 9.20318 17.4869 9.155 17.3691C9.10681 17.2513 9.03565 17.1443 8.94567 17.0543C8.85569 16.9643 8.74869 16.8932 8.63091 16.845C8.51314 16.7968 8.38695 16.7726 8.2597 16.7737C8.13245 16.7748 8.0067 16.8012 7.88978 16.8514C7.77286 16.9017 7.66711 16.9747 7.57871 17.0662L4.86854 19.7754C4.77701 19.8638 4.704 19.9696 4.65378 20.0865C4.60355 20.2034 4.57712 20.3292 4.57601 20.4564C4.5749 20.5837 4.59915 20.7098 4.64734 20.8276C4.69552 20.9454 4.76668 21.0524 4.85666 21.1424C4.94664 21.2324 5.05364 21.3035 5.17142 21.3517C5.28919 21.3999 5.41539 21.4241 5.54263 21.423C5.66988 21.4219 5.79563 21.3955 5.91255 21.3453C6.02947 21.295 6.13522 21.222 6.22362 21.1305L8.93379 18.4213ZM21.1315 6.22362C21.306 6.04288 21.4026 5.8008 21.4004 5.54953C21.3983 5.29826 21.2975 5.0579 21.1198 4.88022C20.9421 4.70253 20.7017 4.60175 20.4505 4.59956C20.1992 4.59738 19.9571 4.69397 19.7764 4.86854L17.0662 7.57871C16.9747 7.66711 16.9017 7.77286 16.8514 7.88978C16.8012 8.0067 16.7748 8.13245 16.7737 8.2597C16.7726 8.38695 16.7968 8.51314 16.845 8.63091C16.8932 8.74869 16.9643 8.85569 17.0543 8.94567C17.1443 9.03565 17.2513 9.10681 17.3691 9.155C17.4869 9.20318 17.6131 9.22743 17.7403 9.22632C17.8675 9.22522 17.9933 9.19878 18.1102 9.14856C18.2271 9.09833 18.3329 9.02532 18.4213 8.93379L21.1315 6.22362ZM13.9583 19.7083C13.9583 19.4542 13.8574 19.2104 13.6776 19.0307C13.4979 18.851 13.2542 18.75 13 18.75C12.7458 18.75 12.5021 18.851 12.3224 19.0307C12.1426 19.2104 12.0417 19.4542 12.0417 19.7083V23.5417C12.0417 23.7958 12.1426 24.0396 12.3224 24.2193C12.5021 24.399 12.7458 24.5 13 24.5C13.2542 24.5 13.4979 24.399 13.6776 24.2193C13.8574 24.0396 13.9583 23.7958 13.9583 23.5417V19.7083ZM13 8.20833C11.7292 8.20833 10.5104 8.71317 9.61178 9.61178C8.71317 10.5104 8.20833 11.7292 8.20833 13C8.20833 14.2708 8.71317 15.4896 9.61178 16.3882C10.5104 17.2868 11.7292 17.7917 13 17.7917C14.2708 17.7917 15.4896 17.2868 16.3882 16.3882C17.2868 15.4896 17.7917 14.2708 17.7917 13C17.7917 11.7292 17.2868 10.5104 16.3882 9.61178C15.4896 8.71317 14.2708 8.20833 13 8.20833Z" fill="black"/>
</svg>
