<svg width="26" height="26" viewBox="0 0 26 26" fill="none" xmlns="http://www.w3.org/2000/svg">
<path d="M24.2423 3.81489V9.43028C24.2423 9.64577 24.1567 9.85243 24.0044 10.0048C23.852 10.1572 23.6453 10.2428 23.4298 10.2428H17.8144C17.0903 10.2428 16.7277 9.36782 17.2396 8.85595L22.8555 3.24005C23.3674 2.72716 24.2423 3.09075 24.2423 3.81489Z" fill="black"/>
<path d="M13.1501 22C15.915 22 18.3926 20.7866 20.0656 18.87L21.5108 20.2781C19.4678 22.5605 16.4793 24 13.1501 24C6.99207 24 2 19.0751 2 13C2 6.92487 6.99207 2 13.1501 2C16.3384 2 19.2141 3.32013 21.2462 5.43654L19.8121 6.85139C18.1474 5.09662 15.7785 4 13.1501 4C8.11171 4 4.02729 8.02944 4.02729 13C4.02729 17.9706 8.11171 22 13.1501 22Z" fill="black"/>
<path d="M21.79 19.57C21.79 20.1223 21.3423 20.57 20.79 20.57C20.2378 20.57 19.79 20.1223 19.79 19.57C19.79 19.0177 20.2378 18.57 20.79 18.57C21.3423 18.57 21.79 19.0177 21.79 19.57Z" fill="black"/>
</svg>
