<svg width="26" height="26" viewBox="0 0 26 26" fill="none" xmlns="http://www.w3.org/2000/svg">
<path d="M11.016 18.0979C10.6722 18.4417 10.1148 18.4417 9.77104 18.0979C9.42725 17.7541 9.42725 17.1967 9.77104 16.853L17.8662 8.75784C18.2099 8.41405 18.7673 8.41405 19.1111 8.75784C19.4549 9.10164 19.4549 9.65903 19.1111 10.0028L11.016 18.0979Z" fill="black"/>
<path d="M6.7579 15.173C6.4141 14.8292 6.41411 14.2718 6.7579 13.928C7.10169 13.5842 7.65909 13.5842 8.00288 13.928L11.016 16.853C11.3598 17.1967 11.3598 17.7541 11.016 18.0979C10.6722 18.4417 10.1148 18.4417 9.77104 18.0979L6.7579 15.173Z" fill="black"/>
<path d="M13 1C6.37115 1 1 6.37115 1 13C1 19.6288 6.37115 25 13 25C19.6288 25 25 19.6288 25 13C25 6.37115 19.6288 1 13 1ZM13 23C6.93654 23 3 19.0692 3 13C3 6.93654 6.93077 3 13 3C19.0635 3 23 6.93077 23 13C23 19.0635 19.0635 23 13 23Z" fill="black"/>
</svg>
